<svg width="37" height="38" viewBox="0 0 37 38" fill="none" xmlns="http://www.w3.org/2000/svg">
  <path d="M29.103 5.75H35.282" stroke="#888888" stroke-linecap="round"/>
  <path d="M32.205 8.828V2.672" stroke="#888888" stroke-linecap="round"/>
  <path fill-rule="evenodd" clip-rule="evenodd" d="M22.242 18.831C22.292 18.918 22.378 18.98 22.49 18.98C25.464 18.98 27.893 21.406 27.893 24.377V31.731C27.893 34.702 25.464 37.128 22.49 37.128H8.51C5.524 37.128 3.107 34.702 3.107 31.731V24.377C3.107 21.406 5.524 18.98 8.51 18.98C8.609 18.98 8.709 18.93 8.746 18.831L8.82 18.683C8.863 18.593 8.907 18.5 8.951 18.407C9.268 17.739 9.619 17 9.836 16.566C10.407 15.452 11.373 14.833 12.575 14.82H18.412C19.615 14.833 20.594 15.452 21.164 16.566C21.359 16.956 21.656 17.584 21.943 18.19C22.002 18.314 22.061 18.438 22.118 18.559L22.242 18.831ZM21.337 23.585C21.337 24.204 21.833 24.699 22.453 24.699C23.072 24.699 23.58 24.204 23.58 23.585C23.58 22.966 23.072 22.458 22.453 22.458C21.833 22.458 21.337 22.966 21.337 23.585ZM13.356 25.504C13.939 24.922 14.695 24.612 15.5 24.612C16.306 24.612 17.062 24.922 17.632 25.491C18.202 26.061 18.512 26.816 18.512 27.621C18.499 29.279 17.161 30.629 15.5 30.629C14.695 30.629 13.939 30.319 13.368 29.75C12.798 29.18 12.489 28.425 12.489 27.621V27.608C12.476 26.828 12.786 26.073 13.356 25.504ZM18.933 31.062C18.053 31.941 16.839 32.486 15.5 32.486C14.199 32.486 12.984 31.978 12.055 31.062C11.138 30.134 10.63 28.92 10.63 27.621C10.617 26.333 11.125 25.12 12.042 24.192C12.972 23.263 14.199 22.756 15.5 22.756C16.801 22.756 18.028 23.263 18.945 24.179C19.862 25.108 20.371 26.333 20.371 27.621C20.358 28.97 19.813 30.183 18.933 31.062Z" fill="#888888"/>
</svg>
