<svg width="64" height="64" viewBox="0 0 64 64" fill="none" xmlns="http://www.w3.org/2000/svg">
  <path d="M31.985 30.479C27.955 24.106 20.303 20.221 13.798 22.124C9.551 23.366 6.811 27.257 7.001 31.492C7.186 35.63 10.181 39.439 14.408 40.449C19.681 41.708 25.383 39.624 29.21 35.86L31.985 33.131L34.759 35.86C38.586 39.624 44.288 41.708 49.562 40.449C53.789 39.439 56.784 35.63 56.969 31.492C57.158 27.257 54.419 23.366 50.171 22.124C43.666 20.221 36.015 24.106 31.985 30.479Z" fill="#FF8B7C"/>
  <path d="M31.985 33.521C27.955 39.894 20.303 43.779 13.798 41.876C9.551 40.634 6.811 36.743 7.001 32.508C7.186 28.37 10.181 24.561 14.408 23.551C19.681 22.292 25.383 24.376 29.21 28.14L31.985 30.869L34.759 28.14C38.586 24.376 44.288 22.292 49.562 23.551C53.789 24.561 56.784 28.37 56.969 32.508C57.158 36.743 54.419 40.634 50.171 41.876C43.666 43.779 36.015 39.894 31.985 33.521Z" fill="#FFD9D1"/>
  <path d="M31.9846 19C34.5725 23.235 35.8655 27.565 35.8655 31.988C35.8655 36.411 34.5725 40.741 31.9846 44.976C29.3968 40.741 28.1038 36.411 28.1038 31.988C28.1038 27.565 29.3968 23.235 31.9846 19Z" fill="#7B2A2D"/>
  <path d="M32 16.5C33.219 16.5 34.207 15.512 34.207 14.293C34.207 13.0741 33.219 12.0861 32 12.0861C30.7811 12.0861 29.7931 13.0741 29.7931 14.293C29.7931 15.512 30.7811 16.5 32 16.5Z" fill="#7B2A2D"/>
  <path d="M29.812 18.5245C27.739 16.6325 25.796 15.9275 23.983 16.4095" stroke="#7B2A2D" stroke-width="1.8" stroke-linecap="round"/>
  <path d="M34.188 18.5245C36.261 16.6325 38.204 15.9275 40.017 16.4095" stroke="#7B2A2D" stroke-width="1.8" stroke-linecap="round"/>
</svg>
