<svg width="36" height="36" viewBox="323 733 36 36" fill="none" xmlns="http://www.w3.org/2000/svg">
  <rect x="323.5" y="733.5" width="35" height="35" rx="17.5" stroke="white"/>
  <path d="M347.104 748.891C347.104 748.891 346.652 754.503 346.389 756.867C346.264 757.996 345.567 758.658 344.424 758.679C342.25 758.718 340.073 758.721 337.9 758.675C336.801 758.652 336.115 757.982 335.992 756.873C335.728 754.488 335.278 748.891 335.278 748.891" stroke="white" stroke-width="1.5" stroke-linecap="round" stroke-linejoin="round"/>
  <path d="M348.257 746.2H334.125" stroke="white" stroke-width="1.5" stroke-linecap="round" stroke-linejoin="round"/>
  <path d="M345.533 746.2C344.879 746.2 344.316 745.737 344.188 745.097L343.985 744.083C343.86 743.616 343.437 743.292 342.954 743.292H339.427C338.944 743.292 338.521 743.616 338.396 744.083L338.193 745.097C338.065 745.737 337.502 746.2 336.848 746.2" stroke="white" stroke-width="1.5" stroke-linecap="round" stroke-linejoin="round"/>
</svg>
