<svg width="375" height="44" viewBox="0 0 375 44" fill="none" xmlns="http://www.w3.org/2000/svg">
  <rect width="375" height="44" fill="white"/>
  <rect opacity="0.35" x="336.833" y="17.8333" width="21" height="10.3333" rx="2.16667" stroke="#111111"/>
  <path opacity="0.4" d="M359.333 21V25C360.138 24.6612 360.661 23.8731 360.661 23C360.661 22.1269 360.138 21.3388 359.333 21Z" fill="#111111"/>
  <rect x="338.333" y="19.3333" width="18" height="7.33333" rx="1.33333" fill="#111111"/>
  <path d="M321.448 25.7573C322.729 24.675 324.605 24.675 325.886 25.7573C325.95 25.8155 325.987 25.8981 325.989 25.9848C325.991 26.0714 325.956 26.1546 325.895 26.2153L323.89 28.2377C323.831 28.2971 323.751 28.3305 323.667 28.3305C323.583 28.3305 323.503 28.2971 323.444 28.2377L321.438 26.2153C321.377 26.1546 321.343 26.0712 321.345 25.9848C321.347 25.8981 321.384 25.8154 321.448 25.7573ZM318.772 23.06C321.532 20.4956 325.804 20.4957 328.563 23.06C328.626 23.1201 328.661 23.2029 328.662 23.2895C328.663 23.3758 328.629 23.4587 328.568 23.52L327.409 24.6908C327.29 24.8102 327.097 24.812 326.975 24.6957C326.069 23.876 324.889 23.4222 323.667 23.4223C322.446 23.4228 321.268 23.8767 320.362 24.6957C320.24 24.8121 320.046 24.8104 319.927 24.6908L318.769 23.52C318.707 23.4588 318.673 23.3759 318.674 23.2895C318.675 23.203 318.71 23.1201 318.772 23.06ZM316.097 20.3696C320.328 16.3175 327.004 16.3176 331.236 20.3696C331.298 20.4298 331.333 20.5122 331.333 20.5981C331.333 20.6838 331.3 20.7667 331.239 20.8276L330.079 21.9975C329.96 22.1176 329.765 22.1187 329.644 22.0004C328.031 20.469 325.892 19.6148 323.667 19.6147C321.442 19.6147 319.302 20.4688 317.689 22.0004C317.568 22.1188 317.374 22.1176 317.255 21.9975L316.094 20.8276C316.033 20.7667 316 20.6838 316 20.5981C316.001 20.5122 316.035 20.4297 316.097 20.3696Z" fill="#111111"/>
  <path d="M296 24.3337C296.552 24.3337 297 24.7815 297 25.3337V27.3337C297 27.8859 296.552 28.3337 296 28.3337H295C294.448 28.3337 294 27.8859 294 27.3337V25.3337C294 24.7815 294.448 24.3337 295 24.3337H296ZM300.667 22.3337C301.219 22.3339 301.667 22.7816 301.667 23.3337V27.3337C301.667 27.8858 301.219 28.3336 300.667 28.3337H299.667C299.115 28.3337 298.667 27.8859 298.667 27.3337V23.3337C298.667 22.7815 299.115 22.3337 299.667 22.3337H300.667ZM305.333 19.9998C305.885 19.9998 306.333 20.4476 306.333 20.9998V27.3337C306.333 27.8859 305.885 28.3337 305.333 28.3337H304.333C303.781 28.3336 303.333 27.8858 303.333 27.3337V20.9998C303.333 20.4477 303.781 19.9999 304.333 19.9998H305.333ZM310 17.6667C310.552 17.6667 311 18.1145 311 18.6667V27.3337C311 27.8859 310.552 28.3337 310 28.3337H309C308.448 28.3337 308 27.8859 308 27.3337V18.6667C308 18.1145 308.448 17.6667 309 17.6667H310Z" fill="#111111"/>
  <path d="M37.879 28.2124C35.9381 28.2124 34.422 27.0552 34.1217 25.356H35.9967C36.2311 26.1543 36.9855 26.6816 37.9083 26.6816C39.4684 26.6816 40.4059 25.2168 40.3766 22.6606C40.3766 22.6606 40.3693 22.6606 40.362 22.6606H40.3546H40.3473C39.9371 23.6934 38.8532 24.3892 37.4835 24.3892C35.4767 24.3892 33.9752 22.9023 33.9752 20.8955C33.9752 18.7568 35.6378 17.2114 37.923 17.2114C39.4757 17.2114 40.7355 17.9585 41.4386 19.3062C41.9367 20.1704 42.193 21.2764 42.193 22.5947C42.193 26.1177 40.589 28.2124 37.879 28.2124ZM37.9303 22.9097C39.1388 22.9097 40.0543 22.0308 40.0543 20.8662C40.0543 19.687 39.1315 18.7642 37.945 18.7642C36.7658 18.7642 35.8356 19.6797 35.8356 20.8369C35.8356 22.0308 36.7291 22.9097 37.9303 22.9097ZM44.6044 26.4546C44.0111 26.4546 43.5497 25.9932 43.5497 25.3999C43.5497 24.814 44.0111 24.3452 44.6044 24.3452C45.1903 24.3452 45.6517 24.814 45.6517 25.3999C45.6517 25.9932 45.1903 26.4546 44.6044 26.4546ZM44.6044 21.1665C44.0111 21.1665 43.5497 20.6978 43.5497 20.1118C43.5497 19.5259 44.0111 19.0571 44.6044 19.0571C45.1903 19.0571 45.6517 19.5259 45.6517 20.1118C45.6517 20.6978 45.1903 21.1665 44.6044 21.1665ZM52.2013 28V26.0005H46.9279V24.3745C47.8434 22.646 49.0226 20.7637 51.3151 17.4312H54.003V24.4551H55.4239V26.0005H54.003V28H52.2013ZM48.6417 24.4478V24.499H52.2306V18.8301H52.2013C50.4947 21.3057 49.484 22.8657 48.6417 24.4478ZM59.0438 28V19.2329H58.9999L56.2679 21.1519V19.3721L59.0292 17.4312H60.8968V28H59.0438Z" fill="#111111"/>
</svg>
