<svg width="40" height="40" viewBox="167.5 645 40 40" fill="none" xmlns="http://www.w3.org/2000/svg">
  <circle opacity="0.8" cx="187.5" cy="665" r="20" fill="#FF7E7E"/>
  <path d="M178.377 658.509V663.772H183.64" stroke="white" stroke-width="1.8" stroke-linecap="round" stroke-linejoin="round"/>
  <path d="M197.675 672.544V667.281H192.412" stroke="white" stroke-width="1.8" stroke-linecap="round" stroke-linejoin="round"/>
  <path d="M194.625 663.195C194.791 663.663 195.306 663.909 195.774 663.743C196.243 663.577 196.488 663.063 196.322 662.594L195.474 662.895L194.625 663.195ZM182.448 659.947L183.064 660.603C183.071 660.597 183.078 660.59 183.084 660.583L182.448 659.947ZM177.761 663.116C177.399 663.456 177.381 664.026 177.722 664.388C178.062 664.75 178.632 664.768 178.994 664.428L178.377 663.772L177.761 663.116ZM198.292 667.936C198.654 667.596 198.672 667.026 198.332 666.664C197.991 666.302 197.422 666.284 197.059 666.625L197.676 667.28L198.292 667.936ZM193.606 671.105L192.989 670.449C192.982 670.456 192.976 670.462 192.969 670.469L193.606 671.105ZM181.428 667.857C181.262 667.389 180.748 667.143 180.279 667.309C179.81 667.475 179.565 667.989 179.731 668.458L180.579 668.158L181.428 667.857ZM195.474 662.895L196.322 662.594C195.315 659.748 192.918 657.617 189.972 656.95L189.774 657.828L189.575 658.706C191.918 659.236 193.824 660.931 194.625 663.195L195.474 662.895ZM189.774 657.828L189.972 656.95C187.027 656.284 183.946 657.175 181.811 659.311L182.448 659.947L183.084 660.583C184.782 658.885 187.233 658.176 189.575 658.706L189.774 657.828ZM182.448 659.947L181.831 659.291L177.761 663.116L178.377 663.772L178.994 664.428L183.064 660.603L182.448 659.947ZM197.676 667.28L197.059 666.625L192.989 670.449L193.606 671.105L194.222 671.761L198.292 667.936L197.676 667.28ZM193.606 671.105L192.969 670.469C191.271 672.167 188.821 672.876 186.478 672.346L186.279 673.224L186.081 674.102C189.026 674.768 192.107 673.877 194.242 671.741L193.606 671.105ZM186.279 673.224L186.478 672.346C184.136 671.816 182.229 670.122 181.428 667.857L180.579 668.158L179.731 668.458C180.738 671.305 183.136 673.436 186.081 674.102L186.279 673.224Z" fill="white"/>
</svg>
