<svg width="40" height="40" viewBox="167.5 645 40 40" fill="none" xmlns="http://www.w3.org/2000/svg">
  <circle opacity="0.8" cx="187.5" cy="665" r="18" fill="#6C6D75"/>
  <path d="M194.601 672.101C194.06 672.642 193.183 672.642 192.643 672.101L187.5 666.959L182.113 672.346C181.572 672.887 180.695 672.887 180.154 672.346C179.613 671.805 179.613 670.928 180.154 670.387L185.541 665L180.398 659.857C179.857 659.316 179.857 658.439 180.398 657.898C180.939 657.357 181.816 657.357 182.357 657.898L187.5 663.041L192.397 658.144C192.938 657.603 193.815 657.603 194.356 658.144C194.897 658.685 194.897 659.561 194.356 660.102L189.459 665L194.601 670.143C195.142 670.684 195.142 671.56 194.601 672.101Z" fill="white"/>
</svg>
